<svg width="194" height="116" xmlns="http://www.w3.org/2000/svg" xmlns:xlink="http://www.w3.org/1999/xlink" xml:space="preserve" overflow="hidden"><g transform="translate(-288 -316)"><path d="M34 329.333C34 325.836 36.8356 323 40.3335 323L65.6665 323C69.1644 323 72 325.836 72 329.333L72 354.667C72 358.164 69.1644 361 65.6665 361L40.3335 361C36.8356 361 34 358.164 34 354.667Z" stroke="#00402E" stroke-width="2" stroke-miterlimit="8" fill="#ECECEC" fill-rule="evenodd" transform="matrix(1 0 0 1.0025 257 -4.80073)"/><text font-family="Nunito Sans,Nunito Sans_MSFontService,sans-serif" font-weight="400" font-size="24" transform="matrix(1 0 0 1.0025 303.448 344)">x</text><path d="M166 354 215 354 215 403 166 403Z" stroke="#00402E" stroke-width="2" stroke-miterlimit="8" fill="#ECECEC" transform="matrix(1 0 0 1.0025 257 -4.80073)"/><text font-family="Nunito Sans,Nunito Sans_MSFontService,sans-serif" font-weight="400" font-size="24" transform="matrix(1 0 0 1.0025 440.748 381)">1</text><path d="M72.363 341.068 155.85 373.592 155.124 375.456 71.637 342.932ZM156.665 367.828 166.669 378.88 151.825 380.252Z" transform="matrix(1 0 0 1.0025 257 -4.80073)"/><text font-family="Nunito Sans,Nunito Sans_MSFontService,sans-serif" font-weight="400" font-size="15" transform="matrix(1 0 0 1.0025 432.544 414)">0</text><text font-family="Nunito Sans,Nunito Sans_MSFontService,sans-serif" font-weight="400" font-size="15" transform="matrix(1 0 0 1.0025 441.544 414)">x</text><text font-family="Nunito Sans,Nunito Sans_MSFontService,sans-serif" font-weight="400" font-size="15" transform="matrix(1 0 0 1.0025 449.544 414)">28</text><text font-family="Nunito Sans,Nunito Sans_MSFontService,sans-serif" font-weight="400" font-size="15" transform="matrix(1 0 0 1.0025 467.544 414)">f</text><path d="M33 400.333C33 396.836 35.8356 394 39.3335 394L64.6665 394C68.1644 394 71 396.836 71 400.333L71 425.667C71 429.164 68.1644 432 64.6665 432L39.3335 432C35.8356 432 33 429.164 33 425.667Z" stroke="#00402E" stroke-width="2" stroke-miterlimit="8" fill="#ECECEC" fill-rule="evenodd" transform="matrix(1 0 0 1.0025 257 -4.80073)"/><text font-family="Nunito Sans,Nunito Sans_MSFontService,sans-serif" font-weight="400" font-size="24" transform="matrix(1 0 0 1.0025 303.21 416)">y</text><path d="M0.340573-0.940218 84.1314 29.4111 83.4502 31.2916-0.340573 0.940218ZM84.8076 23.6291 95.0734 34.4382 80.2666 36.1654Z" transform="matrix(1 0 0 -1.0025 328 409.67)"/></g></svg>