<svg width="194" height="115" xmlns="http://www.w3.org/2000/svg" xmlns:xlink="http://www.w3.org/1999/xlink" xml:space="preserve" overflow="hidden"><g transform="translate(-920 -210)"><path d="M600.289 205.894C600.289 202.509 603.033 199.765 606.418 199.765L631.927 199.765C635.312 199.765 638.056 202.509 638.056 205.894L638.056 230.409C638.056 233.794 635.312 236.538 631.927 236.538L606.418 236.538C603.033 236.538 600.289 233.794 600.289 230.409Z" stroke="#00402E" stroke-width="1.98771" stroke-miterlimit="8" fill="#ECECEC" fill-rule="evenodd" transform="matrix(1.00618 0 0 1 319 14.2091)"/><text font-family="Nunito Sans,Nunito Sans_MSFontService,sans-serif" font-weight="400" font-size="24" transform="matrix(1 0 0 0.993856 935.546 239)">x</text><path d="M731.478 230.575 781.171 230.575 781.171 279.274 731.478 279.274Z" stroke="#00402E" stroke-width="1.98771" stroke-miterlimit="8" fill="#ECECEC" transform="matrix(1.00618 0 0 1 319 14.2091)"/><text font-family="Nunito Sans,Nunito Sans_MSFontService,sans-serif" font-weight="400" font-size="24" transform="matrix(1 0 0 0.993856 1072.85 276)">2</text><path d="M638.416 216.728 721.391 249.052 720.669 250.905 637.695 218.581ZM722.201 243.324 732.143 254.308 717.39 255.672Z" transform="matrix(1.00618 0 0 1 319 14.2091)"/><text font-family="Nunito Sans,Nunito Sans_MSFontService,sans-serif" font-weight="400" font-size="15" transform="matrix(1 0 0 0.993856 1064.64 308)">0</text><text font-family="Nunito Sans,Nunito Sans_MSFontService,sans-serif" font-weight="400" font-size="15" transform="matrix(1 0 0 0.993856 1073.64 308)">x</text><text font-family="Nunito Sans,Nunito Sans_MSFontService,sans-serif" font-weight="400" font-size="15" transform="matrix(1 0 0 0.993856 1081.64 308)">28</text><text font-family="Nunito Sans,Nunito Sans_MSFontService,sans-serif" font-weight="400" font-size="15" transform="matrix(1 0 0 0.993856 1099.64 308)">f</text><path d="M600.289 276.458C600.289 273.073 603.033 270.329 606.418 270.329L630.933 270.329C634.318 270.329 637.062 273.073 637.062 276.458L637.062 301.966C637.062 305.351 634.318 308.095 630.933 308.095L606.418 308.095C603.033 308.095 600.289 305.351 600.289 301.966Z" stroke="#00402E" stroke-width="1.98771" stroke-miterlimit="8" fill="#ECECEC" fill-rule="evenodd" transform="matrix(1.00618 0 0 1 319 14.2091)"/><text font-family="Nunito Sans,Nunito Sans_MSFontService,sans-serif" font-weight="400" font-size="24" transform="matrix(1 0 0 0.993856 935.308 309)">y</text><path d="M0.338481-0.934442 83.6145 29.2304 82.9375 31.0994-0.338481 0.934442ZM84.2866 23.4839 94.4893 34.2266 79.7735 35.9432Z" transform="matrix(1.00618 0 0 -1 960 302.863)"/></g></svg>