<svg width="196" height="140" xmlns="http://www.w3.org/2000/svg" xmlns:xlink="http://www.w3.org/1999/xlink" xml:space="preserve" overflow="hidden"><defs><clipPath id="clip0"><rect x="932" y="17" width="196" height="140"/></clipPath></defs><g clip-path="url(#clip0)" transform="translate(-932 -17)"><path d="M604 27.3335C604 23.8356 606.836 21 610.333 21L635.667 21C639.164 21 642 23.8356 642 27.3335L642 52.6665C642 56.1644 639.164 59 635.667 59L610.333 59C606.836 59 604 56.1644 604 52.6665Z" stroke="#00402E" stroke-width="2" stroke-miterlimit="8" fill="#ECECEC" fill-rule="evenodd" transform="matrix(1 0 0 1.00222 330 1.96672)"/><text font-family="Nunito Sans,Nunito Sans_MSFontService,sans-serif" font-weight="400" font-size="24" transform="matrix(1 0 0 1.00222 946.951 49)">x</text><path d="M737 16 786 16 786 65 737 65Z" stroke="#00402E" stroke-width="2" stroke-miterlimit="8" fill="#ECECEC" transform="matrix(1 0 0 1.00222 330 1.96672)"/><text font-family="Nunito Sans,Nunito Sans_MSFontService,sans-serif" font-weight="400" font-size="24" transform="matrix(1 0 0 1.00222 1084.25 49)">1</text><path d="M642.006 39 724.676 39.5358 724.663 41.5358 641.994 41ZM723.379 33.8606 736.669 40.6135 723.292 47.1937Z" transform="matrix(1 0 0 1.00222 330 1.96672)"/><text font-family="Nunito Sans,Nunito Sans_MSFontService,sans-serif" font-weight="400" font-size="15" transform="matrix(1 0 0 1.00222 1076.05 82)">0</text><text font-family="Nunito Sans,Nunito Sans_MSFontService,sans-serif" font-weight="400" font-size="15" transform="matrix(1 0 0 1.00222 1085.05 82)">x</text><text font-family="Nunito Sans,Nunito Sans_MSFontService,sans-serif" font-weight="400" font-size="15" transform="matrix(1 0 0 1.00222 1093.05 82)">28</text><text font-family="Nunito Sans,Nunito Sans_MSFontService,sans-serif" font-weight="400" font-size="15" transform="matrix(1 0 0 1.00222 1111.05 82)">f</text><path d="M604 98.3335C604 94.8356 606.836 92 610.333 92L635.667 92C639.164 92 642 94.8356 642 98.3335L642 123.667C642 127.164 639.164 130 635.667 130L610.333 130C606.836 130 604 127.164 604 123.667Z" stroke="#00402E" stroke-width="2" stroke-miterlimit="8" fill="#ECECEC" fill-rule="evenodd" transform="matrix(1 0 0 1.00222 330 1.96672)"/><text font-family="Nunito Sans,Nunito Sans_MSFontService,sans-serif" font-weight="400" font-size="24" transform="matrix(1 0 0 1.00222 946.713 120)">y</text><path d="M736 87 786 87 786 137 736 137Z" stroke="#00402E" stroke-width="2" stroke-miterlimit="8" fill="#ECECEC" transform="matrix(1 0 0 1.00222 330 1.96672)"/><text font-family="Nunito Sans,Nunito Sans_MSFontService,sans-serif" font-weight="400" font-size="24" transform="matrix(1 0 0 1.00222 1083.85 121)">2</text><path d="M642.006 110 724.676 110.536 724.663 112.536 641.994 112ZM723.379 104.861 736.669 111.614 723.292 118.194Z" transform="matrix(1 0 0 1.00222 330 1.96672)"/><text font-family="Nunito Sans,Nunito Sans_MSFontService,sans-serif" font-weight="400" font-size="15" transform="matrix(1 0 0 1.00222 1075.64 154)">0</text><text font-family="Nunito Sans,Nunito Sans_MSFontService,sans-serif" font-weight="400" font-size="15" transform="matrix(1 0 0 1.00222 1084.64 154)">x</text><text font-family="Nunito Sans,Nunito Sans_MSFontService,sans-serif" font-weight="400" font-size="15" transform="matrix(1 0 0 1.00222 1092.64 154)">3</text><text font-family="Nunito Sans,Nunito Sans_MSFontService,sans-serif" font-weight="400" font-size="15" transform="matrix(1 0 0 1.00222 1101.64 154)">a</text><text font-family="Nunito Sans,Nunito Sans_MSFontService,sans-serif" font-weight="400" font-size="15" transform="matrix(1 0 0 1.00222 1109.64 154)">5</text></g></svg>