<svg width="156" height="52" xmlns="http://www.w3.org/2000/svg" xmlns:xlink="http://www.w3.org/1999/xlink" xml:space="preserve" overflow="hidden"><g transform="translate(-309 -115)"><path d="M59 135 108 135 108 184 59 184Z" stroke="#00402E" stroke-width="2" stroke-miterlimit="8" fill="#ECECEC" transform="matrix(1 0 0 1.0084 251 -20.1258)"/><text font-family="Nunito Sans,Nunito Sans_MSFontService,sans-serif" font-weight="400" font-size="24" transform="matrix(1 0 0 1.0084 327.42 147)">1</text><text font-family="Nunito Sans,Nunito Sans_MSFontService,sans-serif" font-weight="400" font-size="24" transform="matrix(1 0 0 1.0084 425.543 147)">1</text><path d="M113 144.347 117.388 150 128 135" stroke="#00805B" stroke-width="2" stroke-miterlimit="8" fill="none" fill-rule="evenodd" transform="matrix(1 0 0 1.0084 251 -20.1258)"/><path d="M0 0 15.1181 15.1181" stroke="#CC0022" stroke-width="2" stroke-miterlimit="8" fill="none" fill-rule="evenodd" transform="matrix(-1 0 0 1.0084 463.118 116.008)"/><path d="M197 135 212.118 150.118" stroke="#CC0022" stroke-width="2" stroke-miterlimit="8" fill="none" fill-rule="evenodd" transform="matrix(1 0 0 1.0084 251 -20.1258)"/></g></svg>