<svg width="995" height="555" xmlns="http://www.w3.org/2000/svg" xmlns:xlink="http://www.w3.org/1999/xlink" xml:space="preserve" overflow="hidden"><g transform="translate(94 -57)"><path d="M-93 58 900 58 900 611-93 611Z" stroke="#00805B" stroke-width="2" stroke-miterlimit="8" fill="#F1F1F1"/><path d="M323 358 489 358 489 467 323 467Z" stroke="#00805B" stroke-width="2" stroke-miterlimit="8" fill="#D9D9D9"/><path d="M360 409 456 409 456 452 360 452Z" stroke="#00805B" stroke-width="2" stroke-miterlimit="8" fill="#ECECEC"/><text fill="#252525" font-family="Nunito Sans,Nunito Sans_MSFontService,sans-serif" font-style="italic" font-weight="400" font-size="24" transform="translate(391.478 437)">list</text><text fill="#252525" font-family="Nunito Sans,Nunito Sans_MSFontService,sans-serif" font-weight="400" font-size="24" transform="translate(360.417 384)">T</text><text fill="#252525" font-family="Nunito Sans,Nunito Sans_MSFontService,sans-serif" font-weight="400" font-size="24" transform="translate(374.917 384)">ipos</text><path d="M514 312 692 312 692 524 514 524Z" stroke="#00805B" stroke-width="2" stroke-miterlimit="8" fill="#D9D9D9"/><text fill="#00805B" font-family="Nunito Sans,Nunito Sans_MSFontService,sans-serif" font-weight="400" font-size="24" transform="translate(537.521 339)">Classes S</text><text fill="#00805B" font-family="Nunito Sans,Nunito Sans_MSFontService,sans-serif" font-weight="400" font-size="24" transform="translate(643.521 339)">3</text><path d="M532 363 677 363 677 406 532 406Z" stroke="#00805B" stroke-width="2" stroke-miterlimit="8" fill="#ECECEC"/><text fill="#252525" font-family="Nunito Sans,Nunito Sans_MSFontService,sans-serif" font-style="italic" font-weight="400" font-size="24" transform="translate(543.76 391)">d</text><text fill="#252525" font-family="Nunito Sans,Nunito Sans_MSFontService,sans-serif" font-style="italic" font-weight="400" font-size="24" transform="translate(557.76 391)">ataframes</text><path d="M533 414 677 414 677 457 533 457Z" stroke="#00805B" stroke-width="2" stroke-miterlimit="8" fill="#ECECEC"/><text fill="#252525" font-family="Nunito Sans,Nunito Sans_MSFontService,sans-serif" font-style="italic" font-weight="400" font-size="24" transform="translate(568.01 442)">tibbles</text><path d="M0.341112-0.572789 71.2513 41.6562 70.5691 42.8018-0.341112 0.572789ZM71.8112 38.11 76.638 45.6401 67.7179 44.9835Z" fill="#00805B" transform="matrix(1 0 0 -1 456.5 431.14)"/><path d="M456.547 429.835 526.927 434.8 526.833 436.13 456.453 431.165ZM525.831 431.381 533.53 435.934 525.268 439.361Z" fill="#00805B"/><path d="M-82 228 85 228 85 598-82 598Z" stroke="#00805B" stroke-width="2" stroke-miterlimit="8" fill="#D9D9D9"/><path d="M-56 278 49 278 49 321-56 321Z" stroke="#00805B" stroke-width="2" stroke-miterlimit="8" fill="#ECECEC"/><text fill="#252525" font-family="Nunito Sans,Nunito Sans_MSFontService,sans-serif" font-style="italic" font-weight="400" font-size="24" transform="translate(-44.662 306)">logicals</text><path d="M-62 435 53 435 53 478-62 478Z" stroke="#00805B" stroke-width="2" stroke-miterlimit="8" fill="#ECECEC"/><text fill="#252525" font-family="Nunito Sans,Nunito Sans_MSFontService,sans-serif" font-style="italic" font-weight="400" font-size="24" transform="translate(-47.629 463)">doubles</text><path d="M-70 383 65 383 65 426-70 426Z" stroke="#00805B" stroke-width="2" stroke-miterlimit="8" fill="#ECECEC"/><text fill="#252525" font-family="Nunito Sans,Nunito Sans_MSFontService,sans-serif" font-style="italic" font-weight="400" font-size="24" transform="translate(-50.267 411)">intergers</text><path d="M-72 330 63 330 63 373-72 373Z" stroke="#00805B" stroke-width="2" stroke-miterlimit="8" fill="#ECECEC"/><text fill="#252525" font-family="Nunito Sans,Nunito Sans_MSFontService,sans-serif" font-style="italic" font-weight="400" font-size="24" transform="translate(-60.366 359)">characters</text><text fill="#00805B" font-family="Nunito Sans,Nunito Sans_MSFontService,sans-serif" font-weight="400" font-size="24" transform="translate(-70.78 253)">Tipo</text><path d="M-61 487 53 487 53 530-61 530Z" stroke="#00805B" stroke-width="2" stroke-miterlimit="8" fill="#ECECEC"/><text fill="#252525" font-family="Nunito Sans,Nunito Sans_MSFontService,sans-serif" font-style="italic" font-weight="400" font-size="24" transform="translate(-49.495 515)">complex</text><path d="M-40 539 35 539 35 582-40 582Z" stroke="#00805B" stroke-width="2" stroke-miterlimit="8" fill="#ECECEC"/><text fill="#252525" font-family="Nunito Sans,Nunito Sans_MSFontService,sans-serif" font-style="italic" font-weight="400" font-size="24" transform="translate(-22.883 567)">raw</text><path d="M117 257 295 257 295 575 117 575Z" stroke="#00805B" stroke-width="2" stroke-miterlimit="8" fill="#D9D9D9"/><text fill="#00805B" font-family="Nunito Sans,Nunito Sans_MSFontService,sans-serif" font-weight="400" font-size="24" transform="translate(127.42 283)">Classes S</text><text fill="#00805B" font-family="Nunito Sans,Nunito Sans_MSFontService,sans-serif" font-weight="400" font-size="24" transform="translate(233.42 283)">3</text><path d="M159 307 255 307 255 351 159 351Z" stroke="#00805B" stroke-width="2" stroke-miterlimit="8" fill="#ECECEC"/><text fill="#252525" font-family="Nunito Sans,Nunito Sans_MSFontService,sans-serif" font-style="italic" font-weight="400" font-size="24" transform="translate(169.723 336)">factors</text><path d="M159 463 255 463 255 506 159 506Z" stroke="#00805B" stroke-width="2" stroke-miterlimit="8" fill="#ECECEC"/><text fill="#252525" font-family="Nunito Sans,Nunito Sans_MSFontService,sans-serif" font-style="italic" font-weight="400" font-size="24" transform="translate(176.889 491)">dates</text><path d="M135 359 278 359 278 402 135 402Z" stroke="#00805B" stroke-width="2" stroke-miterlimit="8" fill="#ECECEC"/><text fill="#252525" font-family="Nunito Sans,Nunito Sans_MSFontService,sans-serif" font-style="italic" font-weight="400" font-size="24" transform="translate(150.223 387)">date times</text><path d="M141 410 273 410 273 453 141 453Z" stroke="#00805B" stroke-width="2" stroke-miterlimit="8" fill="#ECECEC"/><text fill="#252525" font-family="Nunito Sans,Nunito Sans_MSFontService,sans-serif" font-style="italic" font-weight="400" font-size="24" transform="translate(155.973 438)">durations</text><path d="M0.418428-0.519002 88.4304 70.4378 87.5936 71.4758-0.418428 0.519002ZM89.4846 67.006 93.2021 75.1411 84.4635 73.234Z" fill="#00805B" transform="matrix(1 0 0 -1 65.5 404.641)"/><path d="M0.454128-0.48807 77.5348 71.2322 76.6266 72.2084-0.454128 0.48807ZM78.8294 67.8837 81.9615 76.2616 73.3799 73.7405Z" fill="#00805B" transform="matrix(1 0 0 -1 53.5 456.762)"/><path d="M0.183603-0.640885 81.6953 22.7109 81.3281 23.9927-0.183603 0.640885ZM81.3315 19.1393 87.9205 25.1878 79.1283 26.8299Z" fill="#00805B" transform="matrix(1 0 0 -1 53.5 456.688)"/><path d="M53.67 455.855 153.102 482.005 152.763 483.295 53.331 457.145ZM152.66 478.442 159.38 484.345 150.626 486.179Z" fill="#00805B"/><path d="M-82 143 295 143 295 204-82 204Z" stroke="#00805B" stroke-width="2" stroke-miterlimit="8" fill="#D9D9D9"/><text fill="#00805B" font-family="Nunito Sans,Nunito Sans_MSFontService,sans-serif" font-weight="400" font-size="24" transform="translate(13.366 167)">Vetores</text><text fill="#00805B" font-family="Nunito Sans,Nunito Sans_MSFontService,sans-serif" font-weight="400" font-size="24" transform="translate(103.532 167)">atômicos</text><text fill="#00805B" font-family="Nunito Sans,Nunito Sans_MSFontService,sans-serif" font-weight="400" font-size="21" transform="translate(-49.634 194)">coleções</text><text fill="#00805B" font-family="Nunito Sans,Nunito Sans_MSFontService,sans-serif" font-weight="400" font-size="21" transform="translate(38.532 194)">de </text><text fill="#00805B" font-family="Nunito Sans,Nunito Sans_MSFontService,sans-serif" font-weight="400" font-size="21" transform="translate(67.866 194)">escalares</text><text fill="#00805B" font-family="Nunito Sans,Nunito Sans_MSFontService,sans-serif" font-weight="400" font-size="21" transform="translate(163.199 194)">(</text><text fill="#00805B" font-family="Nunito Sans,Nunito Sans_MSFontService,sans-serif" font-weight="400" font-size="21" transform="translate(170.032 194)">atômicos</text><text fill="#00805B" font-family="Nunito Sans,Nunito Sans_MSFontService,sans-serif" font-weight="400" font-size="21" transform="translate(256.032 194)">)</text><path d="M319 143 695 143 695 204 319 204Z" stroke="#00805B" stroke-width="2" stroke-miterlimit="8" fill="#D9D9D9"/><text fill="#00805B" font-family="Nunito Sans,Nunito Sans_MSFontService,sans-serif" font-weight="400" font-size="24" transform="translate(410.36 167)">Vetores</text><text fill="#00805B" font-family="Nunito Sans,Nunito Sans_MSFontService,sans-serif" font-weight="400" font-size="24" transform="translate(500.527 167)">genéricos</text><text fill="#00805B" font-family="Nunito Sans,Nunito Sans_MSFontService,sans-serif" font-weight="400" font-size="21" transform="translate(413.273 194)">coleções</text><text fill="#00805B" font-family="Nunito Sans,Nunito Sans_MSFontService,sans-serif" font-weight="400" font-size="21" transform="translate(501.44 194)">de </text><text fill="#00805B" font-family="Nunito Sans,Nunito Sans_MSFontService,sans-serif" font-weight="400" font-size="21" transform="translate(530.773 194)">objetos</text><path d="M259 79 355 79 355 122 259 122Z" stroke="#00805B" stroke-width="2" stroke-miterlimit="8" fill="#D9D9D9"/><text fill="#00805B" font-family="Nunito Sans,Nunito Sans_MSFontService,sans-serif" font-weight="400" font-size="24" transform="translate(277.217 107)">Vetor</text><path d="M759 78 867 78 867 122 759 122Z" stroke="#00805B" stroke-width="2" stroke-miterlimit="8" fill="#D9D9D9"/><text fill="#00805B" font-family="Nunito Sans,Nunito Sans_MSFontService,sans-serif" font-weight="400" font-size="24" transform="translate(773.32 107)">O resto</text><path d="M717.5 68.5001 717.5 601.399" stroke="#00805B" stroke-width="1.33333" stroke-miterlimit="8" stroke-dasharray="5.33333 4" fill="none" fill-rule="evenodd"/><path d="M765 168 861 168 861 211 765 211Z" stroke="#00805B" stroke-width="2" stroke-miterlimit="8" fill="#ECECEC"/><text fill="#252525" font-family="Nunito Sans,Nunito Sans_MSFontService,sans-serif" font-weight="400" font-size="24" transform="translate(782.24 196)">NULL</text><path d="M743 250 882 250 882 346 743 346Z" stroke="#00805B" stroke-width="2" stroke-miterlimit="8" fill="#ECECEC"/><text fill="#252525" font-family="Nunito Sans,Nunito Sans_MSFontService,sans-serif" font-style="italic" font-weight="400" font-size="24" transform="translate(765.32 276)">closures</text><text fill="#252525" font-family="Nunito Sans,Nunito Sans_MSFontService,sans-serif" font-style="italic" font-weight="400" font-size="24" transform="translate(854.99 276)">,</text><text fill="#252525" font-family="Nunito Sans,Nunito Sans_MSFontService,sans-serif" font-style="italic" font-weight="400" font-size="24" transform="translate(754.24 305)">ambientes</text><text fill="#252525" font-family="Nunito Sans,Nunito Sans_MSFontService,sans-serif" font-style="italic" font-weight="400" font-size="24" transform="translate(868.24 305)">,</text><text fill="#252525" font-family="Nunito Sans,Nunito Sans_MSFontService,sans-serif" font-style="italic" font-weight="400" font-size="24" transform="translate(754.66 334)">promessas</text><path d="M765 519 861 519 861 562 765 562Z" stroke="#00805B" stroke-width="2" stroke-miterlimit="8" fill="#ECECEC"/><text fill="#252525" font-family="Nunito Sans,Nunito Sans_MSFontService,sans-serif" font-weight="400" font-size="24" transform="translate(804.65 547)">…</text><path d="M159 516 255 516 255 559 159 559Z" stroke="#00805B" stroke-width="2" stroke-miterlimit="8" fill="#ECECEC"/><text fill="#252525" font-family="Nunito Sans,Nunito Sans_MSFontService,sans-serif" font-style="italic" font-weight="400" font-size="24" transform="translate(198.306 544)">...</text><path d="M557 465 653 465 653 508 557 508Z" stroke="#00805B" stroke-width="2" stroke-miterlimit="8" fill="#ECECEC"/><text fill="#252525" font-family="Nunito Sans,Nunito Sans_MSFontService,sans-serif" font-style="italic" font-weight="400" font-size="24" transform="translate(596.427 493)">...</text><path d="M738 385 888 385 888 480 738 480Z" stroke="#00805B" stroke-width="2" stroke-miterlimit="8" fill="#ECECEC"/><text fill="#252525" font-family="Nunito Sans,Nunito Sans_MSFontService,sans-serif" font-style="italic" font-weight="400" font-size="24" transform="translate(749.319 410)">expressões</text><text fill="#252525" font-family="Nunito Sans,Nunito Sans_MSFontService,sans-serif" font-style="italic" font-weight="400" font-size="24" transform="translate(873.319 410)">,</text><text fill="#252525" font-family="Nunito Sans,Nunito Sans_MSFontService,sans-serif" font-style="italic" font-weight="400" font-size="24" transform="translate(761.74 439)">símbolos</text><text fill="#252525" font-family="Nunito Sans,Nunito Sans_MSFontService,sans-serif" font-style="italic" font-weight="400" font-size="24" transform="translate(859.74 439)">,</text><text fill="#252525" font-family="Nunito Sans,Nunito Sans_MSFontService,sans-serif" font-style="italic" font-weight="400" font-size="24" transform="translate(758.49 468)">chamadas</text></g></svg>