<svg width="149" height="51" xmlns="http://www.w3.org/2000/svg" xmlns:xlink="http://www.w3.org/1999/xlink" xml:space="preserve" overflow="hidden"><g transform="translate(-312 -39)"><path d="M58.3515 60.3296 106.813 60.3296 106.813 108.791 58.3515 108.791Z" stroke="#00402E" stroke-width="1.97802" stroke-miterlimit="8" fill="#ECECEC" transform="matrix(1.01111 0 0 1 254 -20.3406)"/><text font-family="Nunito Sans,Nunito Sans_MSFontService,sans-serif" font-weight="400" font-size="24" transform="matrix(1 0 0 0.989009 330.42 71)">1</text><path d="M106.813 60.3296 155.274 60.3296 155.274 108.791 106.813 108.791Z" stroke="#00402E" stroke-width="1.97802" stroke-miterlimit="8" fill="#ECECEC" transform="matrix(1.01111 0 0 1 254 -20.3406)"/><text font-family="Nunito Sans,Nunito Sans_MSFontService,sans-serif" font-weight="400" font-size="24" transform="matrix(1 0 0 0.989009 379.554 71)">3</text><path d="M155.274 60.3296 203.736 60.3296 203.736 108.791 155.274 108.791Z" stroke="#00402E" stroke-width="1.97802" stroke-miterlimit="8" fill="#ECECEC" transform="matrix(1.01111 0 0 1 254 -20.3406)"/><text font-family="Nunito Sans,Nunito Sans_MSFontService,sans-serif" font-weight="400" font-size="24" transform="matrix(1 0 0 0.989009 428.687 71)">8</text></g></svg>