<svg width="196" height="141" xmlns="http://www.w3.org/2000/svg" xmlns:xlink="http://www.w3.org/1999/xlink" xml:space="preserve" overflow="hidden"><defs><clipPath id="clip0"><rect x="288" y="143" width="196" height="141"/></clipPath></defs><g clip-path="url(#clip0)" transform="translate(-288 -143)"><path d="M34 149.333C34 145.836 36.8356 143 40.3335 143L65.6665 143C69.1644 143 72 145.836 72 149.333L72 174.667C72 178.164 69.1644 181 65.6665 181L40.3335 181C36.8356 181 34 178.164 34 174.667Z" stroke="#00402E" stroke-width="2" stroke-miterlimit="8" fill="#ECECEC" fill-rule="evenodd" transform="matrix(1 0 0 1.00495 256 5.32149)"/><text font-family="Nunito Sans,Nunito Sans_MSFontService,sans-serif" font-weight="400" font-size="24" transform="matrix(1 0 0 1.00495 302.853 175)">x</text><path d="M167 138 216 138 216 188 167 188Z" stroke="#00402E" stroke-width="2" stroke-miterlimit="8" fill="#ECECEC" transform="matrix(1 0 0 1.00495 256 5.32149)"/><text font-family="Nunito Sans,Nunito Sans_MSFontService,sans-serif" font-weight="400" font-size="24" transform="matrix(1 0 0 1.00495 440.153 176)">1</text><path d="M72.0065 161 154.676 161.536 154.663 163.536 71.9935 163ZM153.379 155.861 166.669 162.614 153.293 169.194Z" transform="matrix(1 0 0 1.00495 256 5.32149)"/><text font-family="Nunito Sans,Nunito Sans_MSFontService,sans-serif" font-weight="400" font-size="15" transform="matrix(1 0 0 1.00495 431.948 209)">0</text><text font-family="Nunito Sans,Nunito Sans_MSFontService,sans-serif" font-weight="400" font-size="15" transform="matrix(1 0 0 1.00495 440.948 209)">x</text><text font-family="Nunito Sans,Nunito Sans_MSFontService,sans-serif" font-weight="400" font-size="15" transform="matrix(1 0 0 1.00495 448.948 209)">28</text><text font-family="Nunito Sans,Nunito Sans_MSFontService,sans-serif" font-weight="400" font-size="15" transform="matrix(1 0 0 1.00495 466.948 209)">f</text><path d="M34 221.333C34 217.836 36.8356 215 40.3335 215L65.6665 215C69.1644 215 72 217.836 72 221.333L72 246.667C72 250.164 69.1644 253 65.6665 253L40.3335 253C36.8356 253 34 250.164 34 246.667Z" stroke="#00402E" stroke-width="2" stroke-miterlimit="8" fill="#ECECEC" fill-rule="evenodd" transform="matrix(1 0 0 1.00495 256 5.32149)"/><text font-family="Nunito Sans,Nunito Sans_MSFontService,sans-serif" font-weight="400" font-size="24" transform="matrix(1 0 0 1.00495 302.615 247)">y</text><path d="M166 210 215 210 215 259 166 259Z" stroke="#00402E" stroke-width="2" stroke-miterlimit="8" fill="#ECECEC" transform="matrix(1 0 0 1.00495 256 5.32149)"/><text font-family="Nunito Sans,Nunito Sans_MSFontService,sans-serif" font-weight="400" font-size="24" transform="matrix(1 0 0 1.00495 439.748 248)">1</text><path d="M72.0065 233 154.676 233.536 154.663 235.536 71.9935 235ZM153.379 227.861 166.669 234.614 153.293 241.194Z" transform="matrix(1 0 0 1.00495 256 5.32149)"/><text font-family="Nunito Sans,Nunito Sans_MSFontService,sans-serif" font-weight="400" font-size="15" transform="matrix(1 0 0 1.00495 431.544 281)">0</text><text font-family="Nunito Sans,Nunito Sans_MSFontService,sans-serif" font-weight="400" font-size="15" transform="matrix(1 0 0 1.00495 440.544 281)">x</text><text font-family="Nunito Sans,Nunito Sans_MSFontService,sans-serif" font-weight="400" font-size="15" transform="matrix(1 0 0 1.00495 448.544 281)">3</text><text font-family="Nunito Sans,Nunito Sans_MSFontService,sans-serif" font-weight="400" font-size="15" transform="matrix(1 0 0 1.00495 457.544 281)">a</text><text font-family="Nunito Sans,Nunito Sans_MSFontService,sans-serif" font-weight="400" font-size="15" transform="matrix(1 0 0 1.00495 465.544 281)">5</text></g></svg>