<svg width="193" height="68" xmlns="http://www.w3.org/2000/svg" xmlns:xlink="http://www.w3.org/1999/xlink" xml:space="preserve" overflow="hidden"><defs><clipPath id="clip0"><rect x="289" y="26" width="193" height="68"/></clipPath></defs><g clip-path="url(#clip0)" transform="translate(-289 -26)"><path d="M33.8764 28.2305C33.8764 24.7454 36.7017 21.9201 40.1869 21.9201L65.4279 21.9201C68.9131 21.9201 71.7384 24.7454 71.7384 28.2305L71.7384 53.4715C71.7384 56.9567 68.9131 59.782 65.4279 59.782L40.1869 59.782C36.7017 59.782 33.8764 56.9567 33.8764 53.4715Z" stroke="#00402E" stroke-width="1.99273" stroke-miterlimit="8" fill="#ECECEC" fill-rule="evenodd" transform="matrix(1.00365 0 0 1 257 10.0581)"/><text font-family="Nunito Sans,Nunito Sans_MSFontService,sans-serif" font-weight="400" font-size="24" transform="matrix(1 0 0 0.996366 303.853 58)">x</text><path d="M166.393 16.9382 215.215 16.9382 215.215 65.7602 166.393 65.7602Z" stroke="#00402E" stroke-width="1.99273" stroke-miterlimit="8" fill="#ECECEC" transform="matrix(1.00365 0 0 1 257 10.0581)"/><text font-family="Nunito Sans,Nunito Sans_MSFontService,sans-serif" font-weight="400" font-size="24" transform="matrix(1 0 0 0.996366 441.153 58)">1</text><path d="M71.7448 39.8546 154.114 40.3885 154.101 42.3812 71.7319 41.8474ZM152.822 34.7339 166.063 41.4623 152.736 48.0186Z" transform="matrix(1.00365 0 0 1 257 10.0581)"/><text font-family="Nunito Sans,Nunito Sans_MSFontService,sans-serif" font-weight="400" font-size="15" transform="matrix(1 0 0 0.996366 432.948 91)">0</text><text font-family="Nunito Sans,Nunito Sans_MSFontService,sans-serif" font-weight="400" font-size="15" transform="matrix(1 0 0 0.996366 441.948 91)">x</text><text font-family="Nunito Sans,Nunito Sans_MSFontService,sans-serif" font-weight="400" font-size="15" transform="matrix(1 0 0 0.996366 449.948 91)">28</text><text font-family="Nunito Sans,Nunito Sans_MSFontService,sans-serif" font-weight="400" font-size="15" transform="matrix(1 0 0 0.996366 467.948 91)">f</text></g></svg>