<svg width="774" height="193" xmlns="http://www.w3.org/2000/svg" xmlns:xlink="http://www.w3.org/1999/xlink" xml:space="preserve" overflow="hidden"><g transform="translate(-244 -335)"><path d="M245 336 1017 336 1017 527 245 527Z" stroke="#00805B" stroke-width="2" stroke-miterlimit="8" fill="#F1F1F1"/><path d="M692 353 843 353 843 512 692 512Z" stroke="#00805B" stroke-width="2" stroke-miterlimit="8" fill="#D9D9D9"/><text fill="#00805B" font-family="Nunito Sans,Nunito Sans_MSFontService,sans-serif" font-weight="400" font-size="21" transform="translate(745.001 439)">b</text><text fill="#00805B" font-family="Nunito Sans,Nunito Sans_MSFontService,sans-serif" font-weight="400" font-size="21" transform="translate(757.501 439)">ase</text><path d="M634 353 684 353 684 512 634 512Z" stroke="#00805B" stroke-width="2" stroke-miterlimit="8" fill="#D9D9D9"/><text fill="#00805B" font-family="Nunito Sans,Nunito Sans_MSFontService,sans-serif" font-weight="400" font-size="21" transform="matrix(6.12323e-17 1 -1 6.12323e-17 652.631 407)">pkg</text><text fill="#00805B" font-family="Nunito Sans,Nunito Sans_MSFontService,sans-serif" font-weight="400" font-size="21" transform="matrix(6.12323e-17 1 -1 6.12323e-17 652.631 442)">:</text><text fill="#00805B" font-family="Nunito Sans,Nunito Sans_MSFontService,sans-serif" font-weight="400" font-size="21" transform="matrix(6.12323e-17 1 -1 6.12323e-17 652.631 447)">a</text><path d="M424 353 575 353 575 512 424 512Z" stroke="#00805B" stroke-width="2" stroke-miterlimit="8" fill="#D9D9D9"/><text fill="#00805B" font-family="Nunito Sans,Nunito Sans_MSFontService,sans-serif" font-weight="400" font-size="21" transform="translate(431.543 439)">R</text><text fill="#00805B" font-family="Nunito Sans,Nunito Sans_MSFontService,sans-serif" font-weight="400" font-size="21" transform="translate(445.543 439)">_</text><text fill="#00805B" font-family="Nunito Sans,Nunito Sans_MSFontService,sans-serif" font-weight="400" font-size="21" transform="translate(456.543 439)">Global</text><text fill="#00805B" font-family="Nunito Sans,Nunito Sans_MSFontService,sans-serif" font-weight="400" font-size="21" transform="translate(518.543 439)">_</text><text fill="#00805B" font-family="Nunito Sans,Nunito Sans_MSFontService,sans-serif" font-weight="400" font-size="21" transform="translate(529.543 439)">Env</text><path d="M365 353 416 353 416 512 365 512Z" stroke="#00805B" stroke-width="2" stroke-miterlimit="8" stroke-dasharray="8 6" fill="#D9D9D9"/><text fill="#00805B" font-family="Nunito Sans,Nunito Sans_MSFontService,sans-serif" font-weight="400" font-size="21" transform="matrix(6.12323e-17 1 -1 6.12323e-17 384.007 367)">fun temp</text><text fill="#00805B" font-family="Nunito Sans,Nunito Sans_MSFontService,sans-serif" font-weight="400" font-size="21" transform="matrix(6.12323e-17 1 -1 6.12323e-17 384.007 451)">. </text><text fill="#00805B" font-family="Nunito Sans,Nunito Sans_MSFontService,sans-serif" font-weight="400" font-size="21" transform="matrix(6.12323e-17 1 -1 6.12323e-17 384.007 461)">env</text><path d="M583 411 626 411 626 454 583 454Z" stroke="#00805B" stroke-width="2" stroke-miterlimit="8" fill="#ECECEC"/><text fill="#00805B" font-family="Calibri,Calibri_MSFontService,sans-serif" font-weight="400" font-size="21" transform="translate(596.111 440)">...</text><path d="M255 411 298 411 298 454 255 454Z" stroke="#00805B" stroke-width="2" stroke-miterlimit="8" fill="#ECECEC"/><text fill="#00805B" font-family="Calibri,Calibri_MSFontService,sans-serif" font-weight="400" font-size="21" transform="translate(268.831 440)">...</text><path d="M306 353 357 353 357 512 306 512Z" stroke="#00805B" stroke-width="2" stroke-miterlimit="8" stroke-dasharray="8 6" fill="#D9D9D9"/><text fill="#00805B" font-family="Nunito Sans,Nunito Sans_MSFontService,sans-serif" font-weight="400" font-size="21" transform="matrix(6.12323e-17 1 -1 6.12323e-17 325.351 366)">sub</text><text fill="#00805B" font-family="Nunito Sans,Nunito Sans_MSFontService,sans-serif" font-weight="400" font-size="21" transform="matrix(6.12323e-17 1 -1 6.12323e-17 325.351 401)">-</text><text fill="#00805B" font-family="Nunito Sans,Nunito Sans_MSFontService,sans-serif" font-weight="400" font-size="21" transform="matrix(6.12323e-17 1 -1 6.12323e-17 325.351 410)">fun t</text><text fill="#00805B" font-family="Nunito Sans,Nunito Sans_MSFontService,sans-serif" font-weight="400" font-size="21" transform="matrix(6.12323e-17 1 -1 6.12323e-17 325.351 453)">. </text><text fill="#00805B" font-family="Nunito Sans,Nunito Sans_MSFontService,sans-serif" font-weight="400" font-size="21" transform="matrix(6.12323e-17 1 -1 6.12323e-17 325.351 463)">env</text><path d="M851 353 1003 353 1003 512 851 512Z" stroke="#00805B" stroke-width="2" stroke-miterlimit="8" fill="#D9D9D9"/><text fill="#00805B" font-family="Nunito Sans,Nunito Sans_MSFontService,sans-serif" font-weight="400" font-size="21" transform="translate(865.685 439)">R</text><text fill="#00805B" font-family="Nunito Sans,Nunito Sans_MSFontService,sans-serif" font-weight="400" font-size="21" transform="translate(879.685 439)">_</text><text fill="#00805B" font-family="Nunito Sans,Nunito Sans_MSFontService,sans-serif" font-weight="400" font-size="21" transform="translate(890.685 439)">EmptyEnv</text></g></svg>