<svg width="270" height="344" xmlns="http://www.w3.org/2000/svg" xmlns:xlink="http://www.w3.org/1999/xlink" xml:space="preserve" overflow="hidden"><g transform="translate(-197 -345)"><path d="M198 346 466 346 466 688 198 688Z" stroke="#00805B" stroke-width="2" stroke-miterlimit="8" fill="#F1F1F1"/><path d="M255 412 448 412 448 469 255 469Z" stroke="#00805B" stroke-width="2" stroke-miterlimit="8" fill="#D9D9D9"/><path d="M273 420 311 420 311 458 273 458Z" stroke="#00805B" stroke-width="2" stroke-miterlimit="8" fill="#ECECEC"/><text fill="#252525" font-family="Nunito Sans,Nunito Sans_MSFontService,sans-serif" font-weight="400" font-size="21" transform="translate(285.193 446)">1</text><path d="M333 420 371 420 371 458 333 458Z" stroke="#00805B" stroke-width="2" stroke-miterlimit="8" fill="#ECECEC"/><text fill="#252525" font-family="Nunito Sans,Nunito Sans_MSFontService,sans-serif" font-weight="400" font-size="21" transform="translate(345.458 446)">2</text><path d="M392 420 430 420 430 458 392 458Z" stroke="#00805B" stroke-width="2" stroke-miterlimit="8" fill="#ECECEC"/><text fill="#252525" font-family="Nunito Sans,Nunito Sans_MSFontService,sans-serif" font-weight="400" font-size="21" transform="translate(404.63 446)">3</text><path d="M255 477 448 477 448 533 255 533Z" stroke="#00805B" stroke-width="2" stroke-miterlimit="8" fill="#D9D9D9"/><path d="M274 486 312 486 312 524 274 524Z" stroke="#00805B" stroke-width="2" stroke-miterlimit="8" fill="#ECECEC"/><text fill="#252525" font-family="Nunito Sans,Nunito Sans_MSFontService,sans-serif" font-weight="400" font-size="21" transform="translate(287.047 511)">1</text><path d="M350 486 388 486 388 524 350 524Z" stroke="#00805B" stroke-width="2" stroke-miterlimit="8" fill="#ECECEC"/><text fill="#252525" font-family="Nunito Sans,Nunito Sans_MSFontService,sans-serif" font-weight="400" font-size="21" transform="translate(362.818 511)">2</text><path d="M388 486 426 486 426 524 388 524Z" stroke="#00805B" stroke-width="2" stroke-miterlimit="8" fill="#ECECEC"/><text fill="#252525" font-family="Nunito Sans,Nunito Sans_MSFontService,sans-serif" font-weight="400" font-size="21" transform="translate(400.785 511)">3</text><path d="M296 367 333 367 333 405 296 405Z" stroke="#00805B" stroke-width="2" stroke-miterlimit="8" fill="#ECECEC"/><text fill="#252525" font-family="Nunito Sans,Nunito Sans_MSFontService,sans-serif" font-weight="400" font-size="21" transform="translate(308.026 392)">1</text><path d="M333 367 371 367 371 405 333 405Z" stroke="#00805B" stroke-width="2" stroke-miterlimit="8" fill="#ECECEC"/><text fill="#252525" font-family="Nunito Sans,Nunito Sans_MSFontService,sans-serif" font-weight="400" font-size="21" transform="translate(345.821 392)">2</text><path d="M370 367 408 367 408 405 370 405Z" stroke="#00805B" stroke-width="2" stroke-miterlimit="8" fill="#ECECEC"/><text fill="#252525" font-family="Nunito Sans,Nunito Sans_MSFontService,sans-serif" font-weight="400" font-size="21" transform="translate(382.704 392)">3</text><path d="M255 611 448 611 448 674 255 674Z" stroke="#00805B" stroke-width="2" stroke-miterlimit="8" fill="#D9D9D9"/><path d="M273 624 311 624 311 662 273 662Z" stroke="#00805B" stroke-width="2" stroke-miterlimit="8" fill="#ECECEC"/><text fill="#252525" font-family="Nunito Sans,Nunito Sans_MSFontService,sans-serif" font-weight="400" font-size="21" transform="translate(285.405 649)">1</text><path d="M332 618 438 618 438 667 332 667Z" stroke="#00805B" stroke-width="2" stroke-miterlimit="8" fill="#D9D9D9"/><path d="M349 624 387 624 387 662 349 662Z" stroke="#00805B" stroke-width="2" stroke-miterlimit="8" fill="#ECECEC"/><text fill="#252525" font-family="Nunito Sans,Nunito Sans_MSFontService,sans-serif" font-weight="400" font-size="21" transform="translate(361.423 649)">2</text><path d="M388 624 426 624 426 662 388 662Z" stroke="#00805B" stroke-width="2" stroke-miterlimit="8" fill="#ECECEC"/><text fill="#252525" font-family="Nunito Sans,Nunito Sans_MSFontService,sans-serif" font-weight="400" font-size="21" transform="translate(400.412 649)">3</text><path d="M255 541 448 541 448 603 255 603Z" stroke="#00805B" stroke-width="2" stroke-miterlimit="8" fill="#D9D9D9"/><path d="M274 553 312 553 312 590 274 590Z" stroke="#00805B" stroke-width="2" stroke-miterlimit="8" fill="#ECECEC"/><text fill="#252525" font-family="Nunito Sans,Nunito Sans_MSFontService,sans-serif" font-weight="400" font-size="21" transform="translate(286.668 578)">1</text><path d="M332 547 438 547 438 596 332 596Z" stroke="#00805B" stroke-width="2" stroke-miterlimit="8" fill="#D9D9D9"/><path d="M342 553 380 553 380 590 342 590Z" stroke="#00805B" stroke-width="2" stroke-miterlimit="8" fill="#ECECEC"/><text fill="#252525" font-family="Nunito Sans,Nunito Sans_MSFontService,sans-serif" font-weight="400" font-size="21" transform="translate(354.82 578)">2</text><path d="M392 553 430 553 430 590 392 590Z" stroke="#00805B" stroke-width="2" stroke-miterlimit="8" fill="#ECECEC"/><text fill="#252525" font-family="Nunito Sans,Nunito Sans_MSFontService,sans-serif" font-weight="400" font-size="21" transform="translate(404.848 578)">3</text><text fill="#252525" font-family="Nunito Sans,Nunito Sans_MSFontService,sans-serif" font-weight="400" font-size="21" transform="translate(210.311 390)">v</text><text fill="#252525" font-family="Nunito Sans,Nunito Sans_MSFontService,sans-serif" font-weight="400" font-size="21" transform="translate(221.311 390)">1</text><text fill="#252525" font-family="Nunito Sans,Nunito Sans_MSFontService,sans-serif" font-weight="400" font-size="21" transform="translate(234.311 390)">:</text><text fill="#252525" font-family="Nunito Sans,Nunito Sans_MSFontService,sans-serif" font-weight="400" font-size="21" transform="translate(210.311 446)">v</text><text fill="#252525" font-family="Nunito Sans,Nunito Sans_MSFontService,sans-serif" font-weight="400" font-size="21" transform="translate(221.311 446)">2</text><text fill="#252525" font-family="Nunito Sans,Nunito Sans_MSFontService,sans-serif" font-weight="400" font-size="21" transform="translate(234.311 446)">:</text><text fill="#252525" font-family="Nunito Sans,Nunito Sans_MSFontService,sans-serif" font-weight="400" font-size="21" transform="translate(210.311 509)">v</text><text fill="#252525" font-family="Nunito Sans,Nunito Sans_MSFontService,sans-serif" font-weight="400" font-size="21" transform="translate(221.311 509)">3</text><text fill="#252525" font-family="Nunito Sans,Nunito Sans_MSFontService,sans-serif" font-weight="400" font-size="21" transform="translate(234.311 509)">:</text><text fill="#252525" font-family="Nunito Sans,Nunito Sans_MSFontService,sans-serif" font-weight="400" font-size="21" transform="translate(210.289 577)">v</text><text fill="#252525" font-family="Nunito Sans,Nunito Sans_MSFontService,sans-serif" font-weight="400" font-size="21" transform="translate(221.289 577)">4</text><text fill="#252525" font-family="Nunito Sans,Nunito Sans_MSFontService,sans-serif" font-weight="400" font-size="21" transform="translate(234.289 577)">:</text><text fill="#252525" font-family="Nunito Sans,Nunito Sans_MSFontService,sans-serif" font-weight="400" font-size="21" transform="translate(210.289 647)">v</text><text fill="#252525" font-family="Nunito Sans,Nunito Sans_MSFontService,sans-serif" font-weight="400" font-size="21" transform="translate(221.289 647)">5</text><text fill="#252525" font-family="Nunito Sans,Nunito Sans_MSFontService,sans-serif" font-weight="400" font-size="21" transform="translate(234.289 647)">:</text></g></svg>