<svg width="183" height="228" xmlns="http://www.w3.org/2000/svg" xmlns:xlink="http://www.w3.org/1999/xlink" xml:space="preserve" overflow="hidden"><g transform="translate(-1026 -47)"><path d="M1046 48 1083 48 1083 86 1046 86Z" stroke="#00805B" stroke-width="2" stroke-miterlimit="8" fill="#ECECEC"/><text fill="#252525" font-family="Nunito Sans,Nunito Sans_MSFontService,sans-serif" font-weight="400" font-size="21" transform="translate(1058.14 73)">1</text><path d="M1083 48 1121 48 1121 86 1083 86Z" stroke="#00805B" stroke-width="2" stroke-miterlimit="8" fill="#ECECEC"/><text fill="#252525" font-family="Nunito Sans,Nunito Sans_MSFontService,sans-serif" font-weight="400" font-size="21" transform="translate(1095.93 73)">2</text><path d="M1120 48 1158 48 1158 86 1120 86Z" stroke="#00805B" stroke-width="2" stroke-miterlimit="8" fill="#ECECEC"/><text fill="#252525" font-family="Nunito Sans,Nunito Sans_MSFontService,sans-serif" font-weight="400" font-size="21" transform="translate(1132.81 73)">3</text><path d="M1157 48 1195 48 1195 86 1157 86Z" stroke="#00805B" stroke-width="2" stroke-miterlimit="8" fill="#ECECEC"/><text fill="#252525" font-family="Nunito Sans,Nunito Sans_MSFontService,sans-serif" font-weight="400" font-size="21" transform="translate(1169.7 73)">4</text><path d="M1066 86 1066 119.952 1064 119.952 1064 86ZM1069 118.619 1065 126.619 1061 118.619Z" fill="#00805B"/><path d="M1103 86 1103 119.064 1101 119.064 1101 86ZM1106 117.73 1102 125.73 1098 117.73Z" fill="#00805B"/><path d="M1037 127 1122 127 1122 159 1037 159Z" stroke="#00805B" stroke-width="2" stroke-miterlimit="8" fill="#BFBFBF"/><text fill="#FFFFFF" font-family="Cambria Math,Cambria Math_MSFontService,sans-serif" font-weight="400" font-size="24" transform="translate(1040.83 150)">f</text><text fill="#FFFFFF" font-family="Cambria Math,Cambria Math_MSFontService,sans-serif" font-weight="400" font-size="24" transform="translate(1047.83 150)">(</text><text fill="#00805B" font-family="Cambria Math,Cambria Math_MSFontService,sans-serif" font-weight="400" font-size="24" transform="translate(1058.16 150)">x</text><text fill="#FFFFFF" font-family="Cambria Math,Cambria Math_MSFontService,sans-serif" font-weight="400" font-size="24" transform="translate(1080.49 150)">,  </text><text fill="#00805B" font-family="Cambria Math,Cambria Math_MSFontService,sans-serif" font-weight="400" font-size="24" transform="translate(1096.16 150)">y</text><text fill="#FFFFFF" font-family="Cambria Math,Cambria Math_MSFontService,sans-serif" font-weight="400" font-size="24" transform="translate(1108.33 150)">)</text><path d="M1076 183 1161 183 1161 215 1076 215Z" stroke="#00805B" stroke-width="2" stroke-miterlimit="8" fill="#BFBFBF"/><text fill="#FFFFFF" font-family="Cambria Math,Cambria Math_MSFontService,sans-serif" font-weight="400" font-size="24" transform="translate(1079.61 206)">f</text><text fill="#FFFFFF" font-family="Cambria Math,Cambria Math_MSFontService,sans-serif" font-weight="400" font-size="24" transform="translate(1086.61 206)">(</text><text fill="#CC5500" font-family="Cambria Math,Cambria Math_MSFontService,sans-serif" font-weight="400" font-size="24" transform="translate(1096.94 206)">x</text><text fill="#FFFFFF" font-family="Cambria Math,Cambria Math_MSFontService,sans-serif" font-weight="400" font-size="24" transform="translate(1119.27 206)">,  </text><text fill="#00805B" font-family="Cambria Math,Cambria Math_MSFontService,sans-serif" font-weight="400" font-size="24" transform="translate(1134.94 206)">y</text><text fill="#FFFFFF" font-family="Cambria Math,Cambria Math_MSFontService,sans-serif" font-weight="400" font-size="24" transform="translate(1147.11 206)">)</text><path d="M1112 232 1198 232 1198 264 1112 264Z" stroke="#00805B" stroke-width="2" stroke-miterlimit="8" fill="#BFBFBF"/><text fill="#FFFFFF" font-family="Cambria Math,Cambria Math_MSFontService,sans-serif" font-weight="400" font-size="24" transform="translate(1116.24 255)">f</text><text fill="#FFFFFF" font-family="Cambria Math,Cambria Math_MSFontService,sans-serif" font-weight="400" font-size="24" transform="translate(1123.24 255)">(</text><text fill="#CC5500" font-family="Cambria Math,Cambria Math_MSFontService,sans-serif" font-weight="400" font-size="24" transform="translate(1133.58 255)">x</text><text fill="#FFFFFF" font-family="Cambria Math,Cambria Math_MSFontService,sans-serif" font-weight="400" font-size="24" transform="translate(1155.91 255)">,  </text><text fill="#00805B" font-family="Cambria Math,Cambria Math_MSFontService,sans-serif" font-weight="400" font-size="24" transform="translate(1171.58 255)">y</text><text fill="#FFFFFF" font-family="Cambria Math,Cambria Math_MSFontService,sans-serif" font-weight="400" font-size="24" transform="translate(1183.74 255)">)</text><path d="M1080.75 158.337 1097.16 176.882 1095.67 178.208 1079.25 159.663ZM1098.53 173.896 1100.83 182.537 1092.54 179.198Z" fill="#CC5500"/><path d="M1-1.08702e-06 1.0001 89.9158-0.999902 89.9158-1 1.08702e-06ZM4.0001 88.5825 0.000104987 96.5825-3.9999 88.5825Z" fill="#00805B" transform="matrix(-1 0 0 1 1139 86)"/><path d="M1177 86 1177 223.952 1175 223.952 1175 86ZM1180 222.619 1176 230.619 1172 222.619Z" fill="#00805B"/><path d="M1118.64 214.23 1133.35 226.421 1132.08 227.961 1117.36 215.77ZM1134.24 223.26 1137.85 231.444 1129.14 229.421Z" fill="#CC5500"/></g></svg>