<svg width="1035" height="784" xmlns="http://www.w3.org/2000/svg" xmlns:xlink="http://www.w3.org/1999/xlink" xml:space="preserve" overflow="hidden"><g transform="translate(-2015 -227)"><path d="M3.31832-0.897291 132.588 477.164 125.952 478.959-3.31832 0.897291ZM141.347 470.048 135.252 500.184 114.8 477.226Z" fill="#00805B" transform="matrix(-1 0 0 1 2661.75 360.5)"/><path d="M3.15116-1.37353 138.735 309.684 132.432 312.431-3.15116 1.37353ZM146.357 301.362 144.741 332.065 121.148 312.35Z" fill="#00805B" transform="matrix(-1 0 0 1 2535.24 360.5)"/><rect x="2213.5" y="230.5" width="130" height="130" stroke="#00805B" stroke-width="6.875" stroke-miterlimit="8" fill="#ECECEC"/><text fill="#252525" font-family="Nunito Sans,Nunito Sans_MSFontService,sans-serif" font-weight="400" font-size="73" transform="matrix(1 0 0 1 2255.52 316)">1</text><rect x="2343.5" y="230.5" width="129" height="130" stroke="#00805B" stroke-width="6.875" stroke-miterlimit="8" fill="#ECECEC"/><text fill="#252525" font-family="Nunito Sans,Nunito Sans_MSFontService,sans-serif" font-weight="400" font-size="73" transform="matrix(1 0 0 1 2385.44 316)">2</text><rect x="2469.5" y="230.5" width="130" height="130" stroke="#00805B" stroke-width="6.875" stroke-miterlimit="8" fill="#ECECEC"/><text fill="#252525" font-family="Nunito Sans,Nunito Sans_MSFontService,sans-serif" font-weight="400" font-size="73" transform="matrix(1 0 0 1 2512.22 316)">3</text><rect x="2596.5" y="230.5" width="130" height="130" stroke="#00805B" stroke-width="6.875" stroke-miterlimit="8" fill="#ECECEC"/><text fill="#252525" font-family="Nunito Sans,Nunito Sans_MSFontService,sans-serif" font-weight="400" font-size="73" transform="matrix(1 0 0 1 2639.01 316)">4</text><path d="M2.50564-2.35333 119.392 122.098 114.381 126.805-2.50564 2.35333ZM123.772 111.697 132.576 141.156 103.726 130.524Z" fill="#00805B" transform="matrix(-1 0 0 1 2278.08 360.5)"/><path d="M2.38447-2.47603 130.867 121.256 126.098 126.208-2.38447 2.47603ZM134.719 110.648 144.99 139.628 115.644 130.457Z" fill="#00805B" transform="matrix(-1 0 0 1 2408.49 360.5)"/><rect x="2049.5" y="500.5" width="427" height="111" stroke="#00805B" stroke-width="6.875" stroke-miterlimit="8" fill="#BFBFBF"/><text fill="#FFFFFF" font-family="Cambria Math,Cambria Math_MSFontService,sans-serif" font-weight="400" font-size="83" transform="matrix(1 0 0 1 2065.42 581)">f(</text><text fill="#00805B" font-family="Cambria Math,Cambria Math_MSFontService,sans-serif" font-weight="400" font-size="83" transform="matrix(1 0 0 1 2125.01 581)">x</text><text fill="#FFFFFF" font-family="Cambria Math,Cambria Math_MSFontService,sans-serif" font-weight="400" font-size="83" transform="matrix(1 0 0 1 2201.78 581)">,  </text><text fill="#00805B" font-family="Cambria Math,Cambria Math_MSFontService,sans-serif" font-weight="400" font-size="83" transform="matrix(1 0 0 1 2255.63 581)">y</text><text fill="#FFFFFF" font-family="Cambria Math,Cambria Math_MSFontService,sans-serif" font-weight="400" font-size="83" transform="matrix(1 0 0 1 2334.12 581)">,  </text><text fill="#CC0022" font-family="Cambria Math,Cambria Math_MSFontService,sans-serif" font-weight="400" font-size="83" transform="matrix(1 0 0 1 2387.98 581)">z</text><text fill="#FFFFFF" font-family="Cambria Math,Cambria Math_MSFontService,sans-serif" font-weight="400" font-size="83" transform="matrix(1 0 0 1 2425.22 581)">)</text><rect x="2170.5" y="692.5" width="440" height="112" stroke="#00805B" stroke-width="6.875" stroke-miterlimit="8" fill="#BFBFBF"/><text fill="#FFFFFF" font-family="Cambria Math,Cambria Math_MSFontService,sans-serif" font-weight="400" font-size="83" transform="matrix(1 0 0 1 2192.46 774)">f(</text><text fill="#CC5500" font-family="Cambria Math,Cambria Math_MSFontService,sans-serif" font-weight="400" font-size="83" transform="matrix(1 0 0 1 2252.04 774)">x</text><text fill="#FFFFFF" font-family="Cambria Math,Cambria Math_MSFontService,sans-serif" font-weight="400" font-size="83" transform="matrix(1 0 0 1 2328.81 774)">,  </text><text fill="#00805B" font-family="Cambria Math,Cambria Math_MSFontService,sans-serif" font-weight="400" font-size="83" transform="matrix(1 0 0 1 2382.67 774)">y</text><text fill="#FFFFFF" font-family="Cambria Math,Cambria Math_MSFontService,sans-serif" font-weight="400" font-size="83" transform="matrix(1 0 0 1 2461.16 774)">,  </text><text fill="#CC0022" font-family="Cambria Math,Cambria Math_MSFontService,sans-serif" font-weight="400" font-size="83" transform="matrix(1 0 0 1 2515.01 774)">z</text><text fill="#FFFFFF" font-family="Cambria Math,Cambria Math_MSFontService,sans-serif" font-weight="400" font-size="83" transform="matrix(1 0 0 1 2552.25 774)">)</text><rect x="2316.5" y="860.5" width="420" height="112" stroke="#00805B" stroke-width="6.875" stroke-miterlimit="8" fill="#BFBFBF"/><text fill="#FFFFFF" font-family="Cambria Math,Cambria Math_MSFontService,sans-serif" font-weight="400" font-size="83" transform="matrix(1 0 0 1 2328.73 942)">f(</text><text fill="#CC5500" font-family="Cambria Math,Cambria Math_MSFontService,sans-serif" font-weight="400" font-size="83" transform="matrix(1 0 0 1 2388.31 942)">x</text><text fill="#FFFFFF" font-family="Cambria Math,Cambria Math_MSFontService,sans-serif" font-weight="400" font-size="83" transform="matrix(1 0 0 1 2465.08 942)">,  </text><text fill="#00805B" font-family="Cambria Math,Cambria Math_MSFontService,sans-serif" font-weight="400" font-size="83" transform="matrix(1 0 0 1 2518.94 942)">y</text><text fill="#FFFFFF" font-family="Cambria Math,Cambria Math_MSFontService,sans-serif" font-weight="400" font-size="83" transform="matrix(1 0 0 1 2597.43 942)">,  </text><text fill="#CC0022" font-family="Cambria Math,Cambria Math_MSFontService,sans-serif" font-weight="400" font-size="83" transform="matrix(1 0 0 1 2651.28 942)">z</text><text fill="#FFFFFF" font-family="Cambria Math,Cambria Math_MSFontService,sans-serif" font-weight="400" font-size="83" transform="matrix(1 0 0 1 2688.52 942)">)</text><path d="M2266.93 611.256 2271.06 669.307 2264.2 669.795 2260.07 611.744ZM2281.02 664.003 2269.26 692.41 2253.59 665.955Z" fill="#CC5500"/><path d="M2393.82 803.595 2404.04 841.069 2397.4 842.878 2387.18 805.404ZM2412.78 833.934 2406.75 864.083 2386.25 841.169Z" fill="#CC5500"/><rect x="2916.5" y="526.5" width="130" height="130" stroke="#00805B" stroke-width="6.875" stroke-miterlimit="8" fill="#ECECEC"/><text fill="#252525" font-family="Nunito Sans,Nunito Sans_MSFontService,sans-serif" font-weight="400" font-size="73" transform="matrix(1 0 0 1 2959.25 612)">1</text><rect x="2916.5" y="656.5" width="130" height="130" stroke="#00805B" stroke-width="6.875" stroke-miterlimit="8" fill="#ECECEC"/><text fill="#252525" font-family="Nunito Sans,Nunito Sans_MSFontService,sans-serif" font-weight="400" font-size="73" transform="matrix(1 0 0 1 2959.25 742)">2</text><rect x="2916.5" y="784.5" width="130" height="130" stroke="#00805B" stroke-width="6.875" stroke-miterlimit="8" fill="#ECECEC"/><text fill="#252525" font-family="Nunito Sans,Nunito Sans_MSFontService,sans-serif" font-weight="400" font-size="73" transform="matrix(1 0 0 1 2959.25 870)">3</text><path d="M2916.29 594.559 2499.06 560.776 2499.62 553.923 2916.84 587.706ZM2502.8 571.425 2476.5 555.5 2505.02 544.014Z" fill="#CC0022"/><path d="M0.30079-3.42431 284.241 21.5168 283.639 28.3654-0.30079 3.42431ZM280.577 10.8428 306.769 26.9464 278.171 38.2373Z" fill="#CC0022" transform="matrix(-1 0 0 1 2917.27 721.5)"/><path d="M1.19005-3.22493 160.518 55.5693 158.138 62.0192-1.19005 3.22493ZM159.788 44.3078 180.828 66.7279 150.268 70.1073Z" fill="#CC0022" transform="matrix(-1 0 0 1 2917.33 849.5)"/></g></svg>