<svg width="1048" height="933" xmlns="http://www.w3.org/2000/svg" xmlns:xlink="http://www.w3.org/1999/xlink" xml:space="preserve" overflow="hidden"><g transform="translate(-1412 -1235)"><path d="M3.42583-0.282997 55.2389 626.942 48.3872 627.508-3.42583 0.282997ZM65.1391 621.525 53.6997 650.064 37.7324 623.789Z" fill="#00805B" transform="matrix(-1 0 0 1 2071.2 1367.5)"/><path d="M3.43701-0.0581901 11.5163 477.149 4.64232 477.266-3.43701 0.0581901ZM21.7498 472.392 8.46726 500.12-5.74629 472.857Z" fill="#00805B" transform="matrix(-1 0 0 1 1943.97 1367.5)"/><path d="M3.43249-0.18557 20.1512 309.06 13.2862 309.431-3.43249 0.18557ZM30.2012 303.926 17.9558 332.129 2.74133 305.411Z" fill="#00805B" transform="matrix(-1 0 0 1 1817.46 1367.5)"/><rect x="1622.5" y="1238.5" width="130" height="129" stroke="#00805B" stroke-width="6.875" stroke-miterlimit="8" fill="#ECECEC"/><text fill="#252525" font-family="Nunito Sans,Nunito Sans_MSFontService,sans-serif" font-weight="400" font-size="73" transform="matrix(1 0 0 1 1665 1323)">1</text><rect x="1752.5" y="1238.5" width="130" height="129" stroke="#00805B" stroke-width="6.875" stroke-miterlimit="8" fill="#ECECEC"/><text fill="#252525" font-family="Nunito Sans,Nunito Sans_MSFontService,sans-serif" font-weight="400" font-size="73" transform="matrix(1 0 0 1 1794.92 1323)">2</text><rect x="1879.5" y="1238.5" width="130" height="129" stroke="#00805B" stroke-width="6.875" stroke-miterlimit="8" fill="#ECECEC"/><text fill="#252525" font-family="Nunito Sans,Nunito Sans_MSFontService,sans-serif" font-weight="400" font-size="73" transform="matrix(1 0 0 1 1921.71 1324)">3</text><rect x="2006.5" y="1238.5" width="130" height="129" stroke="#00805B" stroke-width="6.875" stroke-miterlimit="8" fill="#ECECEC"/><text fill="#252525" font-family="Nunito Sans,Nunito Sans_MSFontService,sans-serif" font-weight="400" font-size="73" transform="matrix(1 0 0 1 2048.49 1323)">4</text><path d="M1483.39 1390.64 1545.54 1487.47 1539.76 1491.18 1477.61 1394.36ZM1551.74 1478.04 1555.03 1508.61 1528.6 1492.9Z" fill="#E6B400"/><path d="M3.41766-0.368825 16.0272 116.475 9.19184 117.213-3.41766 0.368825ZM25.7884 110.812 15.0683 139.628-1.55289 113.762Z" fill="#00805B" transform="matrix(-1 0 0 1 1687.57 1367.5)"/><rect x="1458.5" y="1507.5" width="428" height="112" stroke="#00805B" stroke-width="6.875" stroke-miterlimit="8" fill="#BFBFBF"/><text fill="#FFFFFF" font-family="Cambria Math,Cambria Math_MSFontService,sans-serif" font-weight="400" font-size="83" transform="matrix(1 0 0 1 1474.91 1589)">f(</text><text fill="#E6B400" font-family="Cambria Math,Cambria Math_MSFontService,sans-serif" font-weight="400" font-size="83" transform="matrix(1 0 0 1 1534.49 1589)">x</text><text fill="#FFFFFF" font-family="Cambria Math,Cambria Math_MSFontService,sans-serif" font-weight="400" font-size="83" transform="matrix(1 0 0 1 1611.26 1589)">,  </text><text fill="#00805B" font-family="Cambria Math,Cambria Math_MSFontService,sans-serif" font-weight="400" font-size="83" transform="matrix(1 0 0 1 1665.12 1589)">y</text><text fill="#FFFFFF" font-family="Cambria Math,Cambria Math_MSFontService,sans-serif" font-weight="400" font-size="83" transform="matrix(1 0 0 1 1743.61 1589)">,  </text><text fill="#CC0022" font-family="Cambria Math,Cambria Math_MSFontService,sans-serif" font-weight="400" font-size="83" transform="matrix(1 0 0 1 1797.46 1589)">z</text><text fill="#FFFFFF" font-family="Cambria Math,Cambria Math_MSFontService,sans-serif" font-weight="400" font-size="83" transform="matrix(1 0 0 1 1834.7 1589)">)</text><rect x="1579.5" y="1700.5" width="440" height="111" stroke="#00805B" stroke-width="6.875" stroke-miterlimit="8" fill="#BFBFBF"/><text fill="#FFFFFF" font-family="Cambria Math,Cambria Math_MSFontService,sans-serif" font-weight="400" font-size="83" transform="matrix(1 0 0 1 1601.94 1781)">f(</text><text fill="#CC5500" font-family="Cambria Math,Cambria Math_MSFontService,sans-serif" font-weight="400" font-size="83" transform="matrix(1 0 0 1 1661.53 1781)">x</text><text fill="#FFFFFF" font-family="Cambria Math,Cambria Math_MSFontService,sans-serif" font-weight="400" font-size="83" transform="matrix(1 0 0 1 1738.3 1781)">,  </text><text fill="#00805B" font-family="Cambria Math,Cambria Math_MSFontService,sans-serif" font-weight="400" font-size="83" transform="matrix(1 0 0 1 1792.15 1781)">y</text><text fill="#FFFFFF" font-family="Cambria Math,Cambria Math_MSFontService,sans-serif" font-weight="400" font-size="83" transform="matrix(1 0 0 1 1870.64 1781)">,  </text><text fill="#CC0022" font-family="Cambria Math,Cambria Math_MSFontService,sans-serif" font-weight="400" font-size="83" transform="matrix(1 0 0 1 1924.49 1781)">z</text><text fill="#FFFFFF" font-family="Cambria Math,Cambria Math_MSFontService,sans-serif" font-weight="400" font-size="83" transform="matrix(1 0 0 1 1961.73 1781)">)</text><rect x="1726.5" y="1868.5" width="419" height="111" stroke="#00805B" stroke-width="6.875" stroke-miterlimit="8" fill="#BFBFBF"/><text fill="#FFFFFF" font-family="Cambria Math,Cambria Math_MSFontService,sans-serif" font-weight="400" font-size="83" transform="matrix(1 0 0 1 1738.21 1949)">f(</text><text fill="#CC5500" font-family="Cambria Math,Cambria Math_MSFontService,sans-serif" font-weight="400" font-size="83" transform="matrix(1 0 0 1 1797.8 1949)">x</text><text fill="#FFFFFF" font-family="Cambria Math,Cambria Math_MSFontService,sans-serif" font-weight="400" font-size="83" transform="matrix(1 0 0 1 1874.57 1949)">,  </text><text fill="#00805B" font-family="Cambria Math,Cambria Math_MSFontService,sans-serif" font-weight="400" font-size="83" transform="matrix(1 0 0 1 1928.42 1949)">y</text><text fill="#FFFFFF" font-family="Cambria Math,Cambria Math_MSFontService,sans-serif" font-weight="400" font-size="83" transform="matrix(1 0 0 1 2006.91 1949)">,  </text><text fill="#CC0022" font-family="Cambria Math,Cambria Math_MSFontService,sans-serif" font-weight="400" font-size="83" transform="matrix(1 0 0 1 2060.77 1949)">z</text><text fill="#FFFFFF" font-family="Cambria Math,Cambria Math_MSFontService,sans-serif" font-weight="400" font-size="83" transform="matrix(1 0 0 1 2098.01 1949)">)</text><path d="M1675.93 1619.26 1680.06 1677.31 1673.2 1677.79 1669.07 1619.74ZM1690.02 1672 1678.26 1700.41 1662.59 1673.96Z" fill="#CC5500"/><path d="M1802.82 1810.6 1813.04 1848.07 1806.4 1849.88 1796.18 1812.4ZM1821.78 1840.93 1815.75 1871.08 1795.25 1848.17Z" fill="#CC5500"/><rect x="2326.5" y="1544.5" width="130" height="130" stroke="#00805B" stroke-width="6.875" stroke-miterlimit="8" fill="#ECECEC"/><text fill="#252525" font-family="Nunito Sans,Nunito Sans_MSFontService,sans-serif" font-weight="400" font-size="73" transform="matrix(1 0 0 1 2368.73 1630)">1</text><rect x="2326.5" y="1674.5" width="130" height="130" stroke="#00805B" stroke-width="6.875" stroke-miterlimit="8" fill="#ECECEC"/><text fill="#252525" font-family="Nunito Sans,Nunito Sans_MSFontService,sans-serif" font-weight="400" font-size="73" transform="matrix(1 0 0 1 2368.73 1760)">2</text><rect x="2326.5" y="1802.5" width="130" height="130" stroke="#00805B" stroke-width="6.875" stroke-miterlimit="8" fill="#ECECEC"/><text fill="#252525" font-family="Nunito Sans,Nunito Sans_MSFontService,sans-serif" font-weight="400" font-size="73" transform="matrix(1 0 0 1 2368.73 1888)">3</text><path d="M2326.21 1613.13 1908.93 1569.31 1909.65 1562.47 2326.93 1606.29ZM1912.41 1580.05 1886.5 1563.5 1915.29 1552.7Z" fill="#CC0022"/><path d="M0.183158-3.43262 284.068 11.715 283.701 18.5802-0.183158 3.43262ZM280.04 1.1729 306.769 16.3686 278.575 28.6338Z" fill="#CC0022" transform="matrix(-1 0 0 1 2326.27 1739.5)"/><path d="M1.01939-3.28287 159.961 46.0714 157.922 52.6371-1.01939 3.28287ZM158.642 34.8636 180.828 56.1502 150.487 61.1265Z" fill="#CC0022" transform="matrix(-1 0 0 1 2326.33 1867.5)"/><rect x="2326.5" y="1934.5" width="130" height="130" stroke="#00805B" stroke-width="6.875" stroke-miterlimit="8" fill="#ECECEC"/><text fill="#252525" font-family="Nunito Sans,Nunito Sans_MSFontService,sans-serif" font-weight="400" font-size="73" transform="matrix(1 0 0 1 2368.73 2020)">4</text><rect x="1807.5" y="2017.5" width="420" height="112" stroke="#00805B" stroke-width="6.875" stroke-miterlimit="8" fill="#BFBFBF"/><text fill="#FFFFFF" font-family="Cambria Math,Cambria Math_MSFontService,sans-serif" font-weight="400" font-size="83" transform="matrix(1 0 0 1 1819.77 2099)">f(</text><text fill="#CC5500" font-family="Cambria Math,Cambria Math_MSFontService,sans-serif" font-weight="400" font-size="83" transform="matrix(1 0 0 1 1879.35 2099)">x</text><text fill="#FFFFFF" font-family="Cambria Math,Cambria Math_MSFontService,sans-serif" font-weight="400" font-size="83" transform="matrix(1 0 0 1 1956.12 2099)">,  </text><text fill="#00805B" font-family="Cambria Math,Cambria Math_MSFontService,sans-serif" font-weight="400" font-size="83" transform="matrix(1 0 0 1 2009.98 2099)">y</text><text fill="#FFFFFF" font-family="Cambria Math,Cambria Math_MSFontService,sans-serif" font-weight="400" font-size="83" transform="matrix(1 0 0 1 2088.47 2099)">,  </text><text fill="#CC0022" font-family="Cambria Math,Cambria Math_MSFontService,sans-serif" font-weight="400" font-size="83" transform="matrix(1 0 0 1 2142.32 2099)">z</text><text fill="#FFFFFF" font-family="Cambria Math,Cambria Math_MSFontService,sans-serif" font-weight="400" font-size="83" transform="matrix(1 0 0 1 2179.56 2099)">)</text><path d="M2.06046-2.75153 82.9923 57.8537 78.8714 63.3568-2.06046 2.75153ZM85.505 46.8519 99.2754 74.3417 69.0213 68.8641Z" fill="#CC0022" transform="matrix(-1 0 0 1 2326.78 1999.5)"/><rect x="1415.5" y="1263.5" width="130" height="129" stroke="#00805B" stroke-width="6.875" stroke-miterlimit="8" fill="#ECECEC"/><text fill="#252525" font-family="Nunito Sans,Nunito Sans_MSFontService,sans-serif" font-weight="400" font-size="73" transform="matrix(1 0 0 1 1460.76 1348)">x</text></g></svg>