<svg width="778" height="947" xmlns="http://www.w3.org/2000/svg" xmlns:xlink="http://www.w3.org/1999/xlink" xml:space="preserve" overflow="hidden"><g transform="translate(-47 -175)"><rect x="257.5" y="178.5" width="130" height="130" stroke="#00805B" stroke-width="6.875" stroke-miterlimit="8" fill="#ECECEC"/><text fill="#252525" font-family="Nunito Sans,Nunito Sans_MSFontService,sans-serif" font-weight="400" font-size="73" transform="matrix(1 0 0 1 299.94 264)">1</text><rect x="387.5" y="178.5" width="130" height="130" stroke="#00805B" stroke-width="6.875" stroke-miterlimit="8" fill="#ECECEC"/><text fill="#252525" font-family="Nunito Sans,Nunito Sans_MSFontService,sans-serif" font-weight="400" font-size="73" transform="matrix(1 0 0 1 429.861 264)">2</text><rect x="514.5" y="178.5" width="130" height="130" stroke="#00805B" stroke-width="6.875" stroke-miterlimit="8" fill="#ECECEC"/><text fill="#252525" font-family="Nunito Sans,Nunito Sans_MSFontService,sans-serif" font-weight="400" font-size="73" transform="matrix(1 0 0 1 556.646 264)">3</text><rect x="641.5" y="178.5" width="129" height="130" stroke="#00805B" stroke-width="6.875" stroke-miterlimit="8" fill="#ECECEC"/><text fill="#252525" font-family="Nunito Sans,Nunito Sans_MSFontService,sans-serif" font-weight="400" font-size="73" transform="matrix(1 0 0 1 683.431 264)">4</text><path d="M121.191 354.361 179.391 427.566 174.01 431.845 115.809 358.639ZM184.611 417.561 190.962 447.644 163.085 434.675Z" fill="#E6B400"/><path d="M324.937 308.5 324.938 422.156 318.063 422.156 318.062 308.5ZM335.25 417.572 321.5 445.072 307.75 417.572Z" fill="#00805B"/><rect x="95.5001" y="447.5" width="294" height="112" stroke="#00805B" stroke-width="6.875" stroke-miterlimit="8" fill="#BFBFBF"/><text fill="#FFFFFF" font-family="Cambria Math,Cambria Math_MSFontService,sans-serif" font-weight="400" font-size="83" transform="matrix(1 0 0 1 109.068 529)">f(</text><text fill="#E6B400" font-family="Cambria Math,Cambria Math_MSFontService,sans-serif" font-weight="400" font-size="83" transform="matrix(1 0 0 1 168.651 529)">x</text><text fill="#FFFFFF" font-family="Cambria Math,Cambria Math_MSFontService,sans-serif" font-weight="400" font-size="83" transform="matrix(1 0 0 1 245.422 529)">,  </text><text fill="#00805B" font-family="Cambria Math,Cambria Math_MSFontService,sans-serif" font-weight="400" font-size="83" transform="matrix(1 0 0 1 299.276 529)">y</text><text fill="#FFFFFF" font-family="Cambria Math,Cambria Math_MSFontService,sans-serif" font-weight="400" font-size="83" transform="matrix(1 0 0 1 341.099 529)">)</text><rect x="229.5" y="640.5" width="294" height="111" stroke="#00805B" stroke-width="6.875" stroke-miterlimit="8" fill="#BFBFBF"/><text fill="#FFFFFF" font-family="Cambria Math,Cambria Math_MSFontService,sans-serif" font-weight="400" font-size="83" transform="matrix(1 0 0 1 242.367 721)">f(</text><text fill="#CC5500" font-family="Cambria Math,Cambria Math_MSFontService,sans-serif" font-weight="400" font-size="83" transform="matrix(1 0 0 1 301.95 721)">x</text><text fill="#FFFFFF" font-family="Cambria Math,Cambria Math_MSFontService,sans-serif" font-weight="400" font-size="83" transform="matrix(1 0 0 1 378.721 721)">,  </text><text fill="#00805B" font-family="Cambria Math,Cambria Math_MSFontService,sans-serif" font-weight="400" font-size="83" transform="matrix(1 0 0 1 432.575 721)">y</text><text fill="#FFFFFF" font-family="Cambria Math,Cambria Math_MSFontService,sans-serif" font-weight="400" font-size="83" transform="matrix(1 0 0 1 474.398 721)">)</text><rect x="354.5" y="808.5" width="295" height="111" stroke="#00805B" stroke-width="6.875" stroke-miterlimit="8" fill="#BFBFBF"/><text fill="#FFFFFF" font-family="Cambria Math,Cambria Math_MSFontService,sans-serif" font-weight="400" font-size="83" transform="matrix(1 0 0 1 368.308 889)">f(</text><text fill="#CC5500" font-family="Cambria Math,Cambria Math_MSFontService,sans-serif" font-weight="400" font-size="83" transform="matrix(1 0 0 1 427.891 889)">x</text><text fill="#FFFFFF" font-family="Cambria Math,Cambria Math_MSFontService,sans-serif" font-weight="400" font-size="83" transform="matrix(1 0 0 1 504.662 889)">,  </text><text fill="#00805B" font-family="Cambria Math,Cambria Math_MSFontService,sans-serif" font-weight="400" font-size="83" transform="matrix(1 0 0 1 558.516 889)">y</text><text fill="#FFFFFF" font-family="Cambria Math,Cambria Math_MSFontService,sans-serif" font-weight="400" font-size="83" transform="matrix(1 0 0 1 600.339 889)">)</text><path d="M245.074 557.222 301.5 620.971 296.352 625.528 239.926 561.778ZM306.184 610.704 314.115 640.41 285.592 628.931Z" fill="#CC5500"/><path d="M3.4375-3.73662e-06 3.43784 309.086-3.43716 309.086-3.4375 3.73662e-06ZM13.7503 304.502 0.000360892 332.002-13.7497 304.502Z" fill="#00805B" transform="matrix(-1 0 0 1 447.5 308.5)"/><path d="M577.937 308.5 577.938 782.711 571.063 782.711 571.062 308.5ZM588.25 778.128 574.5 805.628 560.75 778.128Z" fill="#00805B"/><path d="M378.693 748.853 429.281 790.761 424.896 796.055 374.307 754.147ZM432.331 779.895 444.736 808.027 414.787 801.073Z" fill="#CC5500"/><rect x="50.5" y="225.5" width="130" height="129" stroke="#00805B" stroke-width="6.875" stroke-miterlimit="8" fill="#ECECEC"/><text fill="#252525" font-family="Nunito Sans,Nunito Sans_MSFontService,sans-serif" font-weight="400" font-size="73" transform="matrix(1 0 0 1 96.1383 311)">x</text><rect x="495.5" y="972.5" width="294" height="111" stroke="#00805B" stroke-width="6.875" stroke-miterlimit="8" fill="#BFBFBF"/><text fill="#FFFFFF" font-family="Cambria Math,Cambria Math_MSFontService,sans-serif" font-weight="400" font-size="83" transform="matrix(1 0 0 1 509.009 1053)">f(</text><text fill="#CC5500" font-family="Cambria Math,Cambria Math_MSFontService,sans-serif" font-weight="400" font-size="83" transform="matrix(1 0 0 1 568.593 1053)">x</text><text fill="#FFFFFF" font-family="Cambria Math,Cambria Math_MSFontService,sans-serif" font-weight="400" font-size="83" transform="matrix(1 0 0 1 645.363 1053)">,  </text><text fill="#00805B" font-family="Cambria Math,Cambria Math_MSFontService,sans-serif" font-weight="400" font-size="83" transform="matrix(1 0 0 1 699.218 1053)">y</text><text fill="#FFFFFF" font-family="Cambria Math,Cambria Math_MSFontService,sans-serif" font-weight="400" font-size="83" transform="matrix(1 0 0 1 741.041 1053)">)</text><path d="M3.43749-0.0063778 4.62706 641.144-2.24793 641.157-3.43749 0.0063778ZM14.931 636.542 1.23209 664.068-12.5689 636.593Z" fill="#00805B" transform="matrix(-1 0 0 1 705.732 308.5)"/><path d="M504.506 916.709 563.089 958.81 559.077 964.393 500.494 922.292ZM565.385 947.761 579.692 974.975 549.337 970.092Z" fill="#CC5500"/></g></svg>