<?xml version="1.0" encoding="UTF-8"?>
<svg xmlns="http://www.w3.org/2000/svg" style="display: none;">
    <symbol id="icon-hamburger" viewBox="0 0 72 72">
        <g><line x1="18" x2="62" y1="19" y2="19" fill="none" stroke="%23004d37" stroke-linecap="round" stroke-linejoin="round" stroke-miterlimit="10" stroke-width="4"/><line x1="18" x2="62" y1="36" y2="36" fill="none" stroke="%23004d37" stroke-linecap="round" stroke-linejoin="round" stroke-miterlimit="10" stroke-width="4"/><line x1="18" x2="62" y1="53" y2="53" fill="none" stroke="%23004d37" stroke-linecap="round" stroke-linejoin="round" stroke-miterlimit="10" stroke-width="4"/></g>
    <symbol id="icon-info" viewBox="0 0 50 50">
        <path d="M 25 2 C 12.309295 2 2 12.309295 2 25 C 2 37.690705 12.309295 48 25 48 C 37.690705 48 48 37.690705 48 25 C 48 12.309295 37.690705 2 25 2 z M 25 4 C 36.609824 4 46 13.390176 46 25 C 46 36.609824 36.609824 46 25 46 C 13.390176 46 4 36.609824 4 25 C 4 13.390176 13.390176 4 25 4 z M 25 11 A 3 3 0 0 0 22 14 A 3 3 0 0 0 25 17 A 3 3 0 0 0 28 14 A 3 3 0 0 0 25 11 z M 21 21 L 21 23 L 22 23 L 23 23 L 23 36 L 22 36 L 21 36 L 21 38 L 22 38 L 23 38 L 27 38 L 28 38 L 29 38 L 29 36 L 28 36 L 27 36 L 27 21 L 26 21 L 22 21 L 21 21 z"></path>
    </symbol>
    <symbol id="icon-circlex" viewBox="0 0 640 640">
        <path d="M320 112C434.9 112 528 205.1 528 320C528 434.9 434.9 528 320 528C205.1 528 112 434.9 112 320C112 205.1 205.1 112 320 112zM320 576C461.4 576 576 461.4 576 320C576 178.6 461.4 64 320 64C178.6 64 64 178.6 64 320C64 461.4 178.6 576 320 576zM231 231C221.6 240.4 221.6 255.6 231 264.9L286 319.9L231 374.9C221.6 384.3 221.6 399.5 231 408.8C240.4 418.1 255.6 418.2 264.9 408.8L319.9 353.8L374.9 408.8C384.3 418.2 399.5 418.2 408.8 408.8C418.1 399.4 418.2 384.2 408.8 374.9L353.8 319.9L408.8 264.9C418.2 255.5 418.2 240.3 408.8 231C399.4 221.7 384.2 221.6 374.9 231L319.9 286L264.9 231C255.5 221.6 240.3 221.6 231 231z"/>
    </symbol>
    <symbol id="icon-project" viewBox="0 0 640 640">
        <path d="M102.8 57.3C108.2 51.9 116.6 51.1 123 55.3L241.9 134.5C250.8 140.4 256.1 150.4 256.1 161.1L256.1 210.7L346.9 301.5C380.2 286.5 420.8 292.6 448.1 320L574.2 446.1C592.9 464.8 592.9 495.2 574.2 514L514.1 574.1C495.4 592.8 465 592.8 446.2 574.1L320.1 448C292.7 420.6 286.6 380.1 301.6 346.8L210.8 256L161.2 256C150.5 256 140.5 250.7 134.6 241.8L55.4 122.9C51.2 116.6 52 108.1 57.4 102.7L102.8 57.3zM247.8 360.8C241.5 397.7 250.1 436.7 274 468L179.1 563C151 591.1 105.4 591.1 77.3 563C49.2 534.9 49.2 489.3 77.3 461.2L212.7 325.7L247.9 360.8zM416.1 64C436.2 64 455.5 67.7 473.2 74.5C483.2 78.3 485 91 477.5 98.6L420.8 155.3C417.8 158.3 416.1 162.4 416.1 166.6L416.1 208C416.1 216.8 423.3 224 432.1 224L473.5 224C477.7 224 481.8 222.3 484.8 219.3L541.5 162.6C549.1 155.1 561.8 156.9 565.6 166.9C572.4 184.6 576.1 203.9 576.1 224C576.1 267.2 558.9 306.3 531.1 335.1L482 286C448.9 253 403.5 240.3 360.9 247.6L304.1 190.8L304.1 161.1L303.9 156.1C303.1 143.7 299.5 131.8 293.4 121.2C322.8 86.2 366.8 64 416.1 63.9z"/>
    </symbol>
    <symbol id="icon-trophy" viewBox="0 0 640 640">
        <path d="M208.3 64L432.3 64C458.8 64 480.4 85.8 479.4 112.2C479.2 117.5 479 122.8 478.7 128L528.3 128C554.4 128 577.4 149.6 575.4 177.8C567.9 281.5 514.9 338.5 457.4 368.3C441.6 376.5 425.5 382.6 410.2 387.1C390 415.7 369 430.8 352.3 438.9L352.3 512L416.3 512C434 512 448.3 526.3 448.3 544C448.3 561.7 434 576 416.3 576L224.3 576C206.6 576 192.3 561.7 192.3 544C192.3 526.3 206.6 512 224.3 512L288.3 512L288.3 438.9C272.3 431.2 252.4 416.9 233 390.6C214.6 385.8 194.6 378.5 175.1 367.5C121 337.2 72.2 280.1 65.2 177.6C63.3 149.5 86.2 127.9 112.3 127.9L161.9 127.9C161.6 122.7 161.4 117.5 161.2 112.1C160.2 85.6 181.8 63.9 208.3 63.9zM165.5 176L113.1 176C119.3 260.7 158.2 303.1 198.3 325.6C183.9 288.3 172 239.6 165.5 176zM444 320.8C484.5 297 521.1 254.7 527.3 176L475 176C468.8 236.9 457.6 284.2 444 320.8z"/>
    </symbol>
    <symbol id="icon-user" viewBox="0 0 640 640">
        <path d="M320 312C386.3 312 440 258.3 440 192C440 125.7 386.3 72 320 72C253.7 72 200 125.7 200 192C200 258.3 253.7 312 320 312zM290.3 368C191.8 368 112 447.8 112 546.3C112 562.7 125.3 576 141.7 576L498.3 576C514.7 576 528 562.7 528 546.3C528 447.8 448.2 368 349.7 368L290.3 368z"/>
    </symbol>
    <symbol id="icon-github" viewBox="0 0 640 640">
        <path d="M237.9 461.4C237.9 463.4 235.6 465 232.7 465C229.4 465.3 227.1 463.7 227.1 461.4C227.1 459.4 229.4 457.8 232.3 457.8C235.3 457.5 237.9 459.1 237.9 461.4zM206.8 456.9C206.1 458.9 208.1 461.2 211.1 461.8C213.7 462.8 216.7 461.8 217.3 459.8C217.9 457.8 216 455.5 213 454.6C210.4 453.9 207.5 454.9 206.8 456.9zM251 455.2C248.1 455.9 246.1 457.8 246.4 460.1C246.7 462.1 249.3 463.4 252.3 462.7C255.2 462 257.2 460.1 256.9 458.1C256.6 456.2 253.9 454.9 251 455.2zM316.8 72C178.1 72 72 177.3 72 316C72 426.9 141.8 521.8 241.5 555.2C254.3 557.5 258.8 549.6 258.8 543.1C258.8 536.9 258.5 502.7 258.5 481.7C258.5 481.7 188.5 496.7 173.8 451.9C173.8 451.9 162.4 422.8 146 415.3C146 415.3 123.1 399.6 147.6 399.9C147.6 399.9 172.5 401.9 186.2 425.7C208.1 464.3 244.8 453.2 259.1 446.6C261.4 430.6 267.9 419.5 275.1 412.9C219.2 406.7 162.8 398.6 162.8 302.4C162.8 274.9 170.4 261.1 186.4 243.5C183.8 237 175.3 210.2 189 175.6C209.9 169.1 258 202.6 258 202.6C278 197 299.5 194.1 320.8 194.1C342.1 194.1 363.6 197 383.6 202.6C383.6 202.6 431.7 169 452.6 175.6C466.3 210.3 457.8 237 455.2 243.5C471.2 261.2 481 275 481 302.4C481 398.9 422.1 406.6 366.2 412.9C375.4 420.8 383.2 435.8 383.2 459.3C383.2 493 382.9 534.7 382.9 542.9C382.9 549.4 387.5 557.3 400.2 555C500.2 521.8 568 426.9 568 316C568 177.3 455.5 72 316.8 72zM169.2 416.9C167.9 417.9 168.2 420.2 169.9 422.1C171.5 423.7 173.8 424.4 175.1 423.1C176.4 422.1 176.1 419.8 174.4 417.9C172.8 416.3 170.5 415.6 169.2 416.9zM158.4 408.8C157.7 410.1 158.7 411.7 160.7 412.7C162.3 413.7 164.3 413.4 165 412C165.7 410.7 164.7 409.1 162.7 408.1C160.7 407.5 159.1 407.8 158.4 408.8zM190.8 444.4C189.2 445.7 189.8 448.7 192.1 450.6C194.4 452.9 197.3 453.2 198.6 451.6C199.9 450.3 199.3 447.3 197.3 445.4C195.1 443.1 192.1 442.8 190.8 444.4zM179.4 429.7C177.8 430.7 177.8 433.3 179.4 435.6C181 437.9 183.7 438.9 185 437.9C186.6 436.6 186.6 434 185 431.7C183.6 429.4 181 428.4 179.4 429.7z"/>
    </symbol>
    <symbol id="icon-envelope" viewBox="0 0 640 640">
        <path d="M112 128C85.5 128 64 149.5 64 176C64 191.1 71.1 205.3 83.2 214.4L291.2 370.4C308.3 383.2 331.7 383.2 348.8 370.4L556.8 214.4C568.9 205.3 576 191.1 576 176C576 149.5 554.5 128 528 128L112 128zM64 260L64 448C64 483.3 92.7 512 128 512L512 512C547.3 512 576 483.3 576 448L576 260L377.6 408.8C343.5 434.4 296.5 434.4 262.4 408.8L64 260z"/>
    </symbol>
    <symbol id="icon-linkedin" viewBox="0 0 640 640">
        <path d="M512 96L127.9 96C110.3 96 96 110.5 96 128.3L96 511.7C96 529.5 110.3 544 127.9 544L512 544C529.6 544 544 529.5 544 511.7L544 128.3C544 110.5 529.6 96 512 96zM231.4 480L165 480L165 266.2L231.5 266.2L231.5 480L231.4 480zM198.2 160C219.5 160 236.7 177.2 236.7 198.5C236.7 219.8 219.5 237 198.2 237C176.9 237 159.7 219.8 159.7 198.5C159.7 177.2 176.9 160 198.2 160zM480.3 480L413.9 480L413.9 376C413.9 351.2 413.4 319.3 379.4 319.3C344.8 319.3 339.5 346.3 339.5 374.2L339.5 480L273.1 480L273.1 266.2L336.8 266.2L336.8 295.4L337.7 295.4C346.6 278.6 368.3 260.9 400.6 260.9C467.8 260.9 480.3 305.2 480.3 362.8L480.3 480z"/>
    </symbol>
    <symbol id="icon-twitter" viewBox="0 0 640 640">
        <path d="M523.4 215.7C523.7 220.2 523.7 224.8 523.7 229.3C523.7 368 418.1 527.9 225.1 527.9C165.6 527.9 110.4 510.7 64 480.8C72.4 481.8 80.6 482.1 89.3 482.1C138.4 482.1 183.5 465.5 219.6 437.3C173.5 436.3 134.8 406.1 121.5 364.5C128 365.5 134.5 366.1 141.3 366.1C150.7 366.1 160.1 364.8 168.9 362.5C120.8 352.8 84.8 310.5 84.8 259.5L84.8 258.2C98.8 266 115 270.9 132.2 271.5C103.9 252.7 85.4 220.5 85.4 184.1C85.4 164.6 90.6 146.7 99.7 131.1C151.4 194.8 229 236.4 316.1 240.9C314.5 233.1 313.5 225 313.5 216.9C313.5 159.1 360.3 112 418.4 112C448.6 112 475.9 124.7 495.1 145.1C518.8 140.6 541.6 131.8 561.7 119.8C553.9 144.2 537.3 164.6 515.6 177.6C536.7 175.3 557.2 169.5 576 161.4C561.7 182.2 543.8 200.7 523.4 215.7z"/>
    </symbol>
    <symbol id="icon-stackoverflow" viewBox="0 0 640 640">
        <path d="M419 375L223.3 333.7L215.1 373L410.8 414L419 375zM470 288L316.5 159.7L291 190.5L444.5 318.8L470 288zM438.8 327.7L257.5 243L240.8 279.5L422 364L438.8 327.7zM390.3 96L358.3 120L477.6 280.3L509.6 256.3L390.3 96zM410.8 424L210.8 424L210.8 463.7L410.8 463.7L410.8 424zM450.5 504L171 504L171 384L131 384L131 544L490.5 544L490.5 384L450.5 384L450.5 504z"/>
    </symbol>
</svg>